<svg version="1.1" id="Layer_1" xmlns="http://www.w3.org/2000/svg" xmlns:xlink="http://www.w3.org/1999/xlink" x="0px" y="0px"
	 width="100%" viewBox="0 0 512 512" enable-background="new 0 0 512 512" xml:space="preserve">
<path fill="#EFEBE0" opacity="1.000000" stroke="none" 
	d="
M340.000000,513.000000 
	C226.694199,513.000000 113.888390,513.000000 1.041291,513.000000 
	C1.041291,342.402496 1.041291,171.804993 1.041291,1.103745 
	C171.555817,1.103745 342.111694,1.103745 512.833801,1.103745 
	C512.833801,171.666534 512.833801,342.333252 512.833801,513.000000 
	C455.471649,513.000000 397.985809,513.000000 340.000000,513.000000 
M147.647400,108.762062 
	C147.647400,207.769623 147.647400,306.777161 147.647400,405.780945 
	C169.421997,405.780945 190.695206,405.780945 212.657974,405.341217 
	C212.644974,368.709259 212.627609,332.077332 212.634705,295.445374 
	C212.634995,293.962952 212.866272,292.480560 213.924316,291.093414 
	C224.728195,291.095490 235.533325,291.187988 246.335159,291.040100 
	C249.265717,290.999969 251.028625,291.671234 252.630814,294.445190 
	C265.085052,316.007843 277.730865,337.460266 290.387268,358.905579 
	C299.481842,374.315643 308.683777,389.662384 318.247009,405.837555 
	C341.965698,405.890778 365.684387,405.945709 389.403076,405.966125 
	C389.582123,405.966278 389.761536,405.495544 390.081848,405.047241 
	C389.391785,404.624054 388.724365,404.214783 388.272461,403.088470 
	C384.901764,397.459106 381.622803,391.772308 378.142334,386.211670 
	C369.496765,372.398926 360.753876,358.647125 352.060242,344.864471 
	C343.532867,331.345398 335.011414,317.822601 326.499969,304.293488 
	C320.642303,294.982544 314.806152,285.658051 308.777039,276.047394 
	C339.236572,261.913147 358.855652,239.889465 363.060974,205.163956 
	C363.828003,192.959290 364.108215,180.795944 360.122192,168.224289 
	C356.891357,154.038589 348.855682,142.773163 338.506012,132.978210 
	C328.716644,123.713486 316.496216,118.825386 303.929352,115.034325 
	C296.698517,112.852989 289.059479,111.858223 281.533539,110.864456 
	C272.377289,109.655403 263.146698,109.009338 253.299744,107.982651 
	C252.866852,107.904305 252.433960,107.825958 251.731720,107.017052 
	C251.016342,106.683685 250.301773,106.060989 249.585480,106.059036 
	C228.776794,106.002235 207.967804,105.982399 187.159393,106.075539 
	C186.103180,106.080269 185.051727,107.144249 183.340073,107.889755 
	C182.893921,107.830963 182.447754,107.772171 181.723907,106.989555 
	C181.338852,106.704239 180.955841,106.172783 180.568420,106.169548 
	C170.542618,106.085930 160.515961,106.012955 150.490845,106.098915 
	C149.641144,106.106201 148.801117,107.239410 147.647400,108.762062 
z"/>
<path fill="#363229" opacity="1.000000" stroke="none" 
	d="
M253.948273,108.119736 
	C263.146698,109.009338 272.377289,109.655403 281.533539,110.864456 
	C289.059479,111.858223 296.698517,112.852989 303.929352,115.034325 
	C316.496216,118.825386 328.716644,123.713486 338.506012,132.978210 
	C348.855682,142.773163 356.891357,154.038589 359.822388,168.897797 
	C360.207123,174.428619 361.252716,179.268951 361.482300,184.147705 
	C361.752167,189.881439 361.192230,195.650009 361.263947,201.400085 
	C361.282928,202.924255 362.299866,204.435959 362.858551,205.953384 
	C358.855652,239.889465 339.236572,261.913147 308.777039,276.047394 
	C314.806152,285.658051 320.642303,294.982544 326.499969,304.293488 
	C335.011414,317.822601 343.532867,331.345398 352.060242,344.864471 
	C360.753876,358.647125 369.496765,372.398926 378.142334,386.211670 
	C381.622803,391.772308 384.901764,397.459106 388.048401,403.756653 
	C387.207550,404.596680 386.590698,404.768555 385.884155,404.800110 
	C385.462799,404.464905 385.207336,404.557037 384.581299,404.966675 
	C381.745361,404.980408 379.356171,404.963715 376.748047,404.708618 
	C375.362701,404.631073 374.196320,404.791931 372.560120,404.980896 
	C358.050171,404.988983 344.010101,404.969025 329.780670,404.721802 
	C328.738586,404.644257 327.885864,404.793976 326.689697,404.967773 
	C325.887939,404.972595 325.429657,404.953369 324.881897,404.795105 
	C324.463135,404.463348 324.209137,404.554688 323.624878,404.960815 
	C322.135498,404.969635 321.051758,404.947784 319.885620,404.790466 
	C319.500366,404.448853 319.252594,404.518372 318.755157,404.911987 
	C318.246185,404.986053 318.042023,405.011688 317.837860,405.037354 
	C308.683777,389.662384 299.481842,374.315643 290.387268,358.905579 
	C277.730865,337.460266 265.085052,316.007843 252.630814,294.445190 
	C251.028625,291.671234 249.265717,290.999969 246.335159,291.040100 
	C235.533325,291.187988 224.728195,291.095490 213.092377,291.214813 
	C211.839035,293.140808 211.053360,294.944733 211.050079,296.750092 
	C210.985077,332.496826 211.010696,368.243713 210.809189,404.099976 
	C210.336090,404.395660 210.144531,404.639252 209.681732,404.964111 
	C208.878464,404.972076 208.419205,404.955994 207.702896,404.690613 
	C205.642288,404.609924 203.838730,404.778564 201.614044,404.976379 
	C199.786682,404.984192 198.380463,404.962891 196.884125,404.800903 
	C196.460724,404.465912 196.204788,404.559326 195.556702,404.971252 
	C182.713364,404.984619 170.339462,404.967285 157.671509,404.684418 
	C154.606049,404.283813 151.834625,404.148773 149.035141,403.544952 
	C148.998611,378.120758 148.974045,353.165314 148.985138,328.209900 
	C149.006104,281.128113 149.047577,234.046341 149.216736,186.874817 
	C149.537918,186.457611 149.444931,186.206696 149.041016,185.562668 
	C149.031113,160.050354 149.054184,135.007690 149.266907,109.862991 
	C149.692841,109.582878 149.862198,109.355057 150.434692,109.048180 
	C183.334122,109.007683 215.763535,109.011162 248.192795,108.948380 
	C250.111816,108.944672 252.029800,108.408257 253.948273,108.119736 
M213.512024,240.389114 
	C224.712524,240.565704 235.912857,240.765198 247.114059,240.854858 
	C247.708069,240.859604 248.309525,239.935898 249.639099,239.140503 
	C252.606613,238.815369 255.573273,238.224838 258.541809,238.215179 
	C267.222443,238.186920 274.663910,234.641190 281.638702,230.074234 
	C295.598511,220.933624 299.440033,207.287582 297.654236,191.613815 
	C296.230347,179.116394 289.937225,169.635605 278.029083,164.924377 
	C271.923431,162.508820 265.316559,161.360291 258.621918,158.944351 
	C257.912262,158.628494 257.203796,158.040176 256.492798,158.037170 
	C243.237961,157.981186 229.982742,157.976608 216.727905,158.033936 
	C215.825867,158.037842 214.926315,158.616348 213.537537,159.092880 
	C213.368240,159.063843 213.198959,159.034821 212.293060,159.337631 
	C211.857666,160.635345 211.046249,161.932022 211.042648,163.230927 
	C210.976440,187.187714 210.984528,211.144867 211.078613,235.101532 
	C211.083618,236.373550 211.987305,237.642029 212.943375,239.156189 
	C212.980835,239.328918 213.018311,239.501648 213.512024,240.389114 
z"/>
<path fill="#020100" opacity="1.000000" stroke="none" 
	d="
M157.965546,404.949982 
	C170.339462,404.967285 182.713364,404.984619 195.793579,404.987488 
	C196.499893,404.973053 196.974258,404.941589 196.974258,404.941589 
	C198.380463,404.962891 199.786682,404.984192 202.036194,405.000702 
	C204.572998,404.977234 206.266479,404.958588 207.959961,404.939941 
	C208.419205,404.955994 208.878464,404.972076 209.930954,404.991577 
	C210.691437,405.000000 210.858658,405.004944 211.211929,405.099731 
	C211.630753,405.345612 211.820892,405.542725 211.968399,405.780945 
	C190.695206,405.780945 169.421997,405.780945 147.647400,405.780945 
	C147.647400,306.777161 147.647400,207.769623 148.272797,108.331573 
	C159.932678,107.838516 170.967133,107.775948 182.001602,107.713379 
	C182.447754,107.772171 182.893921,107.830963 184.130371,107.891251 
	C207.280807,107.844376 229.640930,107.795998 252.001068,107.747620 
	C252.433960,107.825958 252.866852,107.904305 253.624008,108.051193 
	C252.029800,108.408257 250.111816,108.944672 248.192795,108.948380 
	C215.763535,109.011162 183.334122,109.007683 150.218491,109.115128 
	C149.256805,109.387840 149.105148,109.639069 149.077240,109.965042 
	C149.054184,135.007690 149.031113,160.050354 149.024887,185.795685 
	C149.041733,186.498383 149.080521,186.964569 149.080521,186.964569 
	C149.047577,234.046341 149.006104,281.128113 148.985138,328.209900 
	C148.974045,353.165314 148.998611,378.120758 149.289886,403.853516 
	C152.370316,404.737244 155.167923,404.843597 157.965546,404.949982 
z"/>
<path fill="#100C03" opacity="1.000000" stroke="none" 
	d="
M212.313187,405.561096 
	C211.820892,405.542725 211.630753,405.345612 211.227234,404.844727 
	C211.043610,404.330078 211.030762,404.160309 211.017914,403.990570 
	C211.010696,368.243713 210.985077,332.496826 211.050079,296.750092 
	C211.053360,294.944733 211.839035,293.140808 212.625183,291.167175 
	C212.866272,292.480560 212.634995,293.962952 212.634705,295.445374 
	C212.627609,332.077332 212.644974,368.709259 212.313187,405.561096 
z"/>
<path fill="#EEEAE0" opacity="1.000000" stroke="none" 
	d="
M251.866394,107.382339 
	C229.640930,107.795998 207.280807,107.844376 184.459351,107.803902 
	C185.051727,107.144249 186.103180,106.080269 187.159393,106.075539 
	C207.967804,105.982399 228.776794,106.002235 249.585480,106.059036 
	C250.301773,106.060989 251.016342,106.683685 251.866394,107.382339 
z"/>
<path fill="#100C03" opacity="1.000000" stroke="none" 
	d="
M362.959778,205.558670 
	C362.299866,204.435959 361.282928,202.924255 361.263947,201.400085 
	C361.192230,195.650009 361.752167,189.881439 361.482300,184.147705 
	C361.252716,179.268951 360.207123,174.428619 359.756439,169.288696 
	C364.108215,180.795944 363.828003,192.959290 362.959778,205.558670 
z"/>
<path fill="#020100" opacity="1.000000" stroke="none" 
	d="
M385.973877,404.940399 
	C386.590698,404.768555 387.207550,404.596680 387.940674,404.115173 
	C388.724365,404.214783 389.391785,404.624054 390.081848,405.047241 
	C389.761536,405.495544 389.582123,405.966278 389.403076,405.966125 
	C365.684387,405.945709 341.965698,405.890778 318.042419,405.437439 
	C318.042023,405.011688 318.246185,404.986053 318.980194,404.952393 
	C319.510040,404.944336 319.967987,404.925903 319.967987,404.925903 
	C321.051758,404.947784 322.135498,404.969635 323.859863,404.978455 
	C324.500488,404.965393 324.971344,404.934143 324.971344,404.934143 
	C325.429657,404.953369 325.887939,404.972595 327.056091,404.993042 
	C328.500610,404.979156 329.235321,404.964111 329.970001,404.949036 
	C344.010101,404.969025 358.050171,404.988983 372.953156,405.005310 
	C374.866364,404.983429 375.916656,404.965240 376.966980,404.947021 
	C379.356171,404.963715 381.745361,404.980408 384.817535,404.983887 
	C385.500519,404.970642 385.973877,404.940399 385.973877,404.940399 
z"/>
<path fill="#EEEAE0" opacity="1.000000" stroke="none" 
	d="
M181.862762,107.351471 
	C170.967133,107.775948 159.932678,107.838516 148.427399,107.875320 
	C148.801117,107.239410 149.641144,106.106201 150.490845,106.098915 
	C160.515961,106.012955 170.542618,106.085930 180.568420,106.169548 
	C180.955841,106.172783 181.338852,106.704239 181.862762,107.351471 
z"/>
<path fill="#EEEAE0" opacity="1.000000" stroke="none" 
	d="
M213.029678,159.005783 
	C213.198959,159.034821 213.368240,159.063843 214.244598,159.075348 
	C229.613159,159.251587 244.274673,159.445358 258.936188,159.639130 
	C265.316559,161.360291 271.923431,162.508820 278.029083,164.924377 
	C289.937225,169.635605 296.230347,179.116394 297.654236,191.613815 
	C299.440033,207.287582 295.598511,220.933624 281.638702,230.074234 
	C274.663910,234.641190 267.222443,238.186920 258.541809,238.215179 
	C255.573273,238.224838 252.606613,238.815369 248.864548,239.250671 
	C236.411926,239.465363 224.733856,239.569870 213.055786,239.674377 
	C213.018311,239.501648 212.980835,239.328918 212.750000,238.573044 
	C212.578049,213.961288 212.588547,189.932678 212.638428,165.904114 
	C212.643204,163.604401 212.893417,161.305222 213.029678,159.005783 
z"/>
<path fill="#100C03" opacity="1.000000" stroke="none" 
	d="
M212.661377,159.171707 
	C212.893417,161.305222 212.643204,163.604401 212.638428,165.904114 
	C212.588547,189.932678 212.578049,213.961288 212.514633,238.451019 
	C211.987305,237.642029 211.083618,236.373550 211.078613,235.101532 
	C210.984528,211.144867 210.976440,187.187714 211.042648,163.230927 
	C211.046249,161.932022 211.857666,160.635345 212.661377,159.171707 
z"/>
<path fill="#100C03" opacity="1.000000" stroke="none" 
	d="
M258.779053,159.291748 
	C244.274673,159.445358 229.613159,159.251587 214.488617,158.992706 
	C214.926315,158.616348 215.825867,158.037842 216.727905,158.033936 
	C229.982742,157.976608 243.237961,157.981186 256.492798,158.037170 
	C257.203796,158.040176 257.912262,158.628494 258.779053,159.291748 
z"/>
<path fill="#020100" opacity="1.000000" stroke="none" 
	d="
M213.283905,240.031738 
	C224.733856,239.569870 236.411926,239.465363 248.498749,239.402649 
	C248.309525,239.935898 247.708069,240.859604 247.114059,240.854858 
	C235.912857,240.765198 224.712524,240.565704 213.283905,240.031738 
z"/>
<path fill="#3B3731" opacity="1.000000" stroke="none" 
	d="
M157.671509,404.684418 
	C155.167923,404.843597 152.370316,404.737244 149.317947,404.322296 
	C151.834625,404.148773 154.606049,404.283813 157.671509,404.684418 
z"/>
<path fill="#3B3731" opacity="1.000000" stroke="none" 
	d="
M207.702896,404.690613 
	C206.266479,404.958588 204.572998,404.977234 202.457352,404.971558 
	C203.838730,404.778564 205.642288,404.609924 207.702896,404.690613 
z"/>
<path fill="#3B3731" opacity="1.000000" stroke="none" 
	d="
M376.748047,404.708618 
	C375.916656,404.965240 374.866364,404.983429 373.422974,404.977203 
	C374.196320,404.791931 375.362701,404.631073 376.748047,404.708618 
z"/>
<path fill="#3B3731" opacity="1.000000" stroke="none" 
	d="
M329.780670,404.721802 
	C329.235321,404.964111 328.500610,404.979156 327.399536,404.968964 
	C327.885864,404.793976 328.738586,404.644257 329.780670,404.721802 
z"/>
<path fill="#3B3731" opacity="1.000000" stroke="none" 
	d="
M149.216736,186.874817 
	C149.080521,186.964569 149.041733,186.498383 149.057861,186.265350 
	C149.444931,186.206696 149.537918,186.457611 149.216736,186.874817 
z"/>
<path fill="#3B3731" opacity="1.000000" stroke="none" 
	d="
M149.266907,109.862991 
	C149.105148,109.639069 149.256805,109.387840 149.748444,109.144424 
	C149.862198,109.355057 149.692841,109.582878 149.266907,109.862991 
z"/>
<path fill="#3B3731" opacity="1.000000" stroke="none" 
	d="
M196.884125,404.800903 
	C196.974258,404.941589 196.499893,404.973053 196.263016,404.956787 
	C196.204788,404.559326 196.460724,404.465912 196.884125,404.800903 
z"/>
<path fill="#3B3731" opacity="1.000000" stroke="none" 
	d="
M210.809189,404.099976 
	C211.030762,404.160309 211.043610,404.330078 211.041168,404.754883 
	C210.858658,405.004944 210.691437,405.000000 210.274994,404.967560 
	C210.144531,404.639252 210.336090,404.395660 210.809189,404.099976 
z"/>
<path fill="#3B3731" opacity="1.000000" stroke="none" 
	d="
M319.885620,404.790466 
	C319.967987,404.925903 319.510040,404.944336 319.285004,404.903931 
	C319.252594,404.518372 319.500366,404.448853 319.885620,404.790466 
z"/>
<path fill="#3B3731" opacity="1.000000" stroke="none" 
	d="
M324.881897,404.795105 
	C324.971344,404.934143 324.500488,404.965393 324.265503,404.947754 
	C324.209137,404.554688 324.463135,404.463348 324.881897,404.795105 
z"/>
<path fill="#3B3731" opacity="1.000000" stroke="none" 
	d="
M385.884155,404.800110 
	C385.973877,404.940399 385.500519,404.970642 385.264282,404.953430 
	C385.207336,404.557037 385.462799,404.464905 385.884155,404.800110 
z"/>
</svg>